HIERARCHY
ROOT Hips
{
	OFFSET 0.000000 0.000000 0.000000
	CHANNELS 6 Xposition Yposition Zposition Xrotation Yrotation Zrotation
	JOINT LeftUpLeg_virtual
	{
		OFFSET 0.000000 0.000000 0.000000
		CHANNELS 3 Xrotation Yrotation Zrotation
		JOINT LeftUpLeg
		{
			OFFSET 11.394100 -6.187798 -0.413800
			CHANNELS 3 Xrotation Yrotation Zrotation
			JOINT LeftLeg
			{
				OFFSET 0.430247 -32.302673 3.732800
				CHANNELS 3 Xrotation Yrotation Zrotation
				JOINT LeftFoot
				{
					OFFSET -0.430247 -48.264931 -6.423300
					CHANNELS 3 Xrotation Yrotation Zrotation
					JOINT LeftToeBase
					{
						OFFSET 4.230900 -16.068199 23.438400
						CHANNELS 3 Xrotation Yrotation Zrotation
						JOINT LeftToe_End
						{
							OFFSET 4.510700 0.695400 19.974600
							CHANNELS 3 Xrotation Yrotation Zrotation
							End Site
							{
								OFFSET 0 0 0
							}
						}
					}
				}
			}
		}
	}
	JOINT RightUpLeg_virtual
	{
		OFFSET 0.000000 0.000000 0.000000
		CHANNELS 3 Xrotation Yrotation Zrotation
		JOINT RightUpLeg
		{
			OFFSET -11.333700 -6.187798 -0.413800
			CHANNELS 3 Xrotation Yrotation Zrotation
			JOINT RightLeg
			{
				OFFSET -0.430392 -32.302628 3.733000
				CHANNELS 3 Xrotation Yrotation Zrotation
				JOINT RightFoot
				{
					OFFSET 0.430392 -48.264973 -6.423500
					CHANNELS 3 Xrotation Yrotation Zrotation
					JOINT RightToeBase
					{
						OFFSET -4.230900 -16.068199 23.438400
						CHANNELS 3 Xrotation Yrotation Zrotation
						JOINT RightToe_End
						{
							OFFSET -4.510700 0.695400 19.974600
							CHANNELS 3 Xrotation Yrotation Zrotation
							End Site
							{
								OFFSET 0 0 0
							}
						}
					}
				}
			}
		}
	}
	JOINT Spine_virtual
	{
		OFFSET 0.000000 0.000000 0.000000
		CHANNELS 3 Xrotation Yrotation Zrotation
		JOINT Spine
		{
			OFFSET -0.002400 12.777504 0.315300
			CHANNELS 3 Xrotation Yrotation Zrotation
			JOINT Spine1
			{
				OFFSET -0.002067 5.816869 0.032633
				CHANNELS 3 Xrotation Yrotation Zrotation
				JOINT Spine1_split
				{
					OFFSET -0.002067 5.816869 0.032633
					CHANNELS 3 Xrotation Yrotation Zrotation
					JOINT Spine2
					{
						OFFSET -0.002067 5.816869 0.032633
						CHANNELS 3 Xrotation Yrotation Zrotation
						JOINT Neck_virtual
						{
							OFFSET 0.000000 0.000000 0.000000
							CHANNELS 3 Xrotation Yrotation Zrotation
							JOINT Neck
							{
								OFFSET -0.003700 21.199493 -0.826900
								CHANNELS 3 Xrotation Yrotation Zrotation
								JOINT Head
								{
									OFFSET 0.000000 20.442200 4.834800
									CHANNELS 3 Xrotation Yrotation Zrotation
									JOINT HeadTop_End
									{
										OFFSET 0.000000 34.668396 4.968400
										CHANNELS 3 Xrotation Yrotation Zrotation
										End Site
										{
											OFFSET 0 0 0
										}
									}
								}
							}
						}
						JOINT LeftShoulder_virtual
						{
							OFFSET 0.000000 0.000000 0.000000
							CHANNELS 3 Xrotation Yrotation Zrotation
							JOINT LeftShoulder
							{
								OFFSET 3.288150 8.794197 -1.372250
								CHANNELS 3 Xrotation Yrotation Zrotation
								JOINT LeftShoulder_split
								{
									OFFSET 3.288150 8.794197 -1.372250
									CHANNELS 3 Xrotation Yrotation Zrotation
									JOINT LeftArm
									{
										OFFSET 11.953299 -2.279007 -0.146200
										CHANNELS 3 Xrotation Yrotation Zrotation
										JOINT LeftForeArm
										{
											OFFSET 18.448900 0.000000 0.000000
											CHANNELS 3 Xrotation Yrotation Zrotation
											JOINT LeftHand
											{
												OFFSET 29.527798 0.000000 0.000000
												CHANNELS 3 Xrotation Yrotation Zrotation
												End Site
												{
													OFFSET 0 0 0
												}
											}
										}
									}
								}
							}
						}
						JOINT RightShoulder_virtual
						{
							OFFSET 0.000000 0.000000 0.000000
							CHANNELS 3 Xrotation Yrotation Zrotation
							JOINT RightShoulder
							{
								OFFSET -3.249400 8.794197 -1.372250
								CHANNELS 3 Xrotation Yrotation Zrotation
								JOINT RightShoulder_split
								{
									OFFSET -3.249400 8.794197 -1.372250
									CHANNELS 3 Xrotation Yrotation Zrotation
									JOINT RightArm
									{
										OFFSET -11.953299 -2.279007 -0.146200
										CHANNELS 3 Xrotation Yrotation Zrotation
										JOINT RightForeArm
										{
											OFFSET -18.448900 0.000000 0.000000
											CHANNELS 3 Xrotation Yrotation Zrotation
											JOINT RightHand
											{
												OFFSET -29.527802 0.000000 0.000000
												CHANNELS 3 Xrotation Yrotation Zrotation
												End Site
												{
													OFFSET 0 0 0
												}
											}
										}
									}
								}
							}
						}
					}
				}
			}
		}
	}
}
MOTION
Frames: 10
Frame Time: 0.03333333
0.869987 89.279221 -1.201225 0.000000 0.000000 0.000000 -5.057694 -63.032947 -3.850867 -35.785980 9.165289 30.336053 41.749084 -6.173774 -8.238666 -4.808718 -3.781985 -6.903551 -0.648839 0.787046 0.362029 0.000000 0.000000 0.000000 -5.860201 -61.378361 -3.961304 -29.760538 -9.779021 -21.098222 39.795759 2.947596 -7.687892 -11.385829 3.995311 18.732825 2.034504 -0.326811 0.116887 0.000000 0.000000 0.000000 -5.025727 -60.872613 -3.489179 10.340439 2.111832 -1.115890 7.535801 0.386271 -5.117142 0.503803 -1.744221 1.121815 0.000000 0.000000 0.000000 7.937382 0.771474 -4.954051 -25.376475 23.229181 11.294860 -3.544105 26.377593 -3.143240 0.000000 0.000000 0.000000 9.047858 0.452706 -4.639422 -5.688418 -10.022995 -1.628817 -2.285384 -1.375309 -2.366543 -18.058667 3.610879 -34.931319 4.868648 -49.508698 2.798894 0.000000 0.000000 0.000000 8.471782 0.440705 -4.928521 -4.102258 11.789852 2.016066 1.833215 0.983209 0.864145 -38.833901 -25.176535 32.434403 -157.220081 65.003730 157.763313 0.000000 0.000000 0.000000 
0.817522 89.214462 -1.279160 0.000000 0.000000 0.000000 -4.743537 -62.917483 -3.150619 -35.514036 8.799825 29.634606 41.331384 -5.873477 -8.247155 -4.635903 -3.598296 -7.125728 -0.383927 0.789134 0.234814 0.000000 0.000000 0.000000 -5.610591 -61.511584 -3.297113 -30.319913 -9.391469 -21.786888 40.157230 3.113713 -7.692705 -11.412489 4.429415 18.920669 1.985677 -0.246736 0.162391 0.000000 0.000000 0.000000 -4.245597 -60.641350 -2.564959 10.210772 2.179540 -0.892529 8.024478 0.488306 -4.995554 0.465293 -1.702947 1.186726 0.000000 0.000000 0.000000 8.269724 0.904933 -4.886486 -23.399441 23.317598 11.679191 -2.769077 25.821923 -2.939962 0.000000 0.000000 0.000000 9.435894 0.501924 -4.540481 -5.818593 -10.623376 -2.372531 -2.142916 -1.146963 -2.369244 -16.564997 4.922148 -34.911658 5.242269 -49.867433 2.855838 0.000000 0.000000 0.000000 8.833206 0.559414 -4.740487 -4.173605 11.901858 2.676776 1.440963 0.828794 0.758014 -39.528091 -24.691494 31.045553 -157.428552 64.217643 158.230362 0.000000 0.000000 0.000000 
0.734344 89.326736 -1.297356 0.000000 0.000000 0.000000 -4.100410 -62.853163 -2.125571 -35.131542 8.437182 28.740432 40.603839 -5.622237 -8.125440 -4.307755 -3.507794 -7.562965 -0.109425 0.788013 0.143398 0.000000 0.000000 0.000000 -5.142775 -61.580084 -2.397126 -30.676705 -9.176976 -22.383503 40.168961 3.128136 -7.619567 -11.326296 4.723271 19.091806 1.851573 -0.196023 0.180960 0.000000 0.000000 0.000000 -3.385363 -60.353368 -1.540209 10.111936 2.188453 -0.807727 8.441625 0.550303 -4.875347 0.487978 -1.959088 1.231644 0.000000 0.000000 0.000000 8.626999 0.994139 -4.788650 -21.949902 23.433066 11.749354 -2.135537 25.066458 -2.939530 0.000000 0.000000 0.000000 9.785798 0.512071 -4.400156 -5.933139 -11.090695 -2.906024 -2.160536 -0.726606 -2.398790 -15.319853 5.679191 -35.002004 5.729072 -49.007649 3.037738 0.000000 0.000000 0.000000 9.083621 0.627906 -4.546010 -4.236842 11.591850 3.215931 0.921116 0.674597 0.858932 -40.045027 -23.472522 30.358593 -156.950234 64.266500 157.888169 0.000000 0.000000 0.000000 
0.649953 89.520683 -1.268620 0.000000 0.000000 0.000000 -3.414384 -62.760511 -1.092986 -34.776820 8.094362 27.813613 39.908539 -5.440984 -7.894542 -4.007685 -3.500538 -8.128250 0.001007 0.786005 0.141130 0.000000 0.000000 0.000000 -4.609052 -61.595937 -1.472028 -30.874675 -9.039206 -22.786380 40.107383 2.967807 -7.508909 -11.303966 4.811671 19.198014 1.710536 -0.180404 0.170048 0.000000 0.000000 0.000000 -2.711780 -60.021462 -0.679348 10.098695 2.128904 -0.855949 8.781578 0.539226 -4.793113 0.592572 -2.342166 1.182456 0.000000 0.000000 0.000000 9.008327 1.006786 -4.718397 -21.125504 23.574630 11.604900 -1.590231 24.369529 -3.161955 0.000000 0.000000 0.000000 10.109214 0.452011 -4.273928 -6.010914 -11.418910 -3.212648 -2.246125 -0.242966 -2.547125 -14.611831 5.879725 -34.928829 6.024741 -47.253209 3.148077 0.000000 0.000000 0.000000 9.275705 0.605581 -4.403825 -4.279536 11.005021 3.553927 0.498539 0.556317 1.055628 -40.488812 -22.097648 30.382935 -156.659022 64.510836 157.606560 0.000000 0.000000 0.000000 
0.577162 89.679993 -1.193714 0.000000 0.000000 0.000000 -2.809797 -62.642861 -0.206305 -34.567307 7.807979 26.987957 39.518337 -5.272934 -7.638439 -3.882537 -3.539278 -8.661853 -0.104219 0.791624 0.217789 0.000000 0.000000 0.000000 -4.078400 -61.486586 -0.646444 -30.941300 -8.907396 -23.007012 40.047424 2.680644 -7.411993 -11.404399 4.712858 19.278692 1.553674 -0.185025 0.130229 0.000000 0.000000 0.000000 -2.370290 -59.723857 -0.101682 10.185645 2.006507 -1.011473 9.027612 0.449615 -4.780668 0.771495 -2.782476 1.118749 0.000000 0.000000 0.000000 9.390289 0.937784 -4.704981 -20.799656 23.727377 11.372770 -1.101817 23.879868 -3.541287 0.000000 0.000000 0.000000 10.409948 0.335714 -4.219322 -6.046512 -11.548550 -3.355880 -2.311726 0.135788 -2.681867 -14.402031 5.743276 -34.598412 5.924261 -45.187688 3.033601 0.000000 0.000000 0.000000 9.465255 0.494827 -4.370563 -4.310794 10.342214 3.680298 0.435012 0.591045 1.320604 -40.829382 -21.161002 31.047772 -157.106358 64.494867 157.936704 0.000000 0.000000 0.000000 
0.523727 89.755798 -1.077358 0.000000 0.000000 0.000000 -2.370598 -62.498164 0.466100 -34.577532 7.629679 26.349019 39.464345 -5.095964 -7.435812 -3.979716 -3.553214 -9.011680 -0.330581 0.811291 0.333152 0.000000 0.000000 0.000000 -3.563918 -61.272603 0.059608 -30.931458 -8.731125 -23.097941 40.003660 2.337556 -7.362998 -11.585848 4.483867 19.385665 1.429367 -0.208899 0.060742 0.000000 0.000000 0.000000 -2.280289 -59.466823 0.267742 10.344916 1.849175 -1.228001 9.177599 0.313741 -4.845720 0.759897 -2.953387 1.095493 0.000000 0.000000 0.000000 9.713806 0.809334 -4.766632 -20.732189 23.851828 11.139524 -0.534398 23.593630 -3.948367 0.000000 0.000000 0.000000 10.670408 0.190919 -4.265984 -6.059387 -11.487481 -3.414571 -2.331246 0.440779 -2.947120 -14.530153 5.622718 -34.065118 5.385613 -43.297577 2.677462 0.000000 0.000000 0.000000 9.650966 0.325499 -4.459904 -4.339725 9.818733 3.658684 0.676644 0.555859 1.576403 -40.998924 -20.937398 32.180508 -158.249227 64.188383 158.862851 0.000000 0.000000 0.000000 
0.464878 89.740326 -0.927010 0.000000 0.000000 0.000000 -2.036978 -62.307479 0.997206 -34.727544 7.628749 25.948983 39.633955 -4.926937 -7.343273 -4.265508 -3.558371 -9.105651 -0.572457 0.831294 0.466942 0.000000 0.000000 0.000000 -3.096410 -61.087354 0.669721 -30.960800 -8.482116 -23.171705 39.970933 2.032297 -7.372744 -11.764251 4.203550 19.541373 1.399374 -0.228652 -0.021305 0.000000 0.000000 0.000000 -2.275243 -59.294238 0.570283 10.541065 1.691412 -1.470845 9.243576 0.170992 -4.967285 0.677163 -2.961369 1.088164 0.000000 0.000000 0.000000 9.942695 0.662260 -4.895291 -20.665063 23.929136 10.955704 0.088527 23.504897 -4.248081 0.000000 0.000000 0.000000 10.857177 0.054099 -4.401629 -6.052597 -11.341825 -3.419514 -2.265074 0.710554 -3.330024 -14.768609 5.734177 -33.454113 4.596132 -41.878277 2.191118 0.000000 0.000000 0.000000 9.830946 0.148066 -4.631515 -4.372728 9.593471 3.531049 1.124280 0.396955 1.779102 -41.031262 -21.359682 33.438854 -159.647489 63.746367 159.967347 0.000000 0.000000 0.000000 
0.408296 89.664581 -0.760201 0.000000 0.000000 0.000000 -1.672771 -62.134620 1.547188 -34.958889 7.782339 25.760340 39.893998 -4.790775 -7.371252 -4.601332 -3.565059 -8.953976 -0.696328 0.845324 0.577382 0.000000 0.000000 0.000000 -2.628007 -60.917159 1.257921 -31.085400 -8.204260 -23.343232 39.923788 1.802196 -7.417311 -11.886926 3.909247 19.745997 1.482381 -0.235724 -0.115902 0.000000 0.000000 0.000000 -2.172727 -59.196334 0.979450 10.743414 1.563865 -1.706000 9.256531 0.063410 -5.110340 0.577569 -2.860933 1.118136 0.000000 0.000000 0.000000 10.077148 0.540384 -5.040949 -20.487316 23.932913 10.835036 0.702402 23.527871 -4.397628 0.000000 0.000000 0.000000 10.971261 -0.043708 -4.584675 -6.039450 -11.196662 -3.346982 -2.156545 0.880633 -3.622000 -15.019738 6.155722 -33.024993 3.763194 -40.976695 1.708244 0.000000 0.000000 0.000000 9.983512 0.019157 -4.830975 -4.400858 9.735420 3.372824 1.550975 0.140725 1.972378 -40.828832 -22.111426 34.626621 -160.724228 63.478098 160.701879 0.000000 0.000000 0.000000 
0.345267 89.586563 -0.632221 0.000000 0.000000 0.000000 -1.280165 -61.976727 2.136325 -35.218836 8.021069 25.728949 40.061593 -4.766262 -7.480143 -4.880047 -3.612092 -8.700372 -0.711443 0.845727 0.678042 0.000000 0.000000 0.000000 -2.148982 -60.795814 1.873220 -31.312565 -7.964457 -23.633896 39.954739 1.623666 -7.458760 -11.962801 3.613280 19.939976 1.627922 -0.226295 -0.221052 0.000000 0.000000 0.000000 -1.813495 -59.116530 1.599934 10.931084 1.484780 -1.899046 9.262469 0.014335 -5.245796 0.469432 -2.741349 1.172124 0.000000 0.000000 0.000000 10.140201 0.477979 -5.191347 -20.163224 23.877168 10.758667 1.248315 23.563821 -4.393239 0.000000 0.000000 0.000000 11.005591 -0.084306 -4.777190 -6.034182 -11.145580 -3.171032 -1.984745 0.973404 -3.806024 -15.331020 6.729033 -32.939352 3.103137 -40.407730 1.371338 0.000000 0.000000 0.000000 10.086660 -0.025796 -5.009099 -4.407720 10.218395 3.238954 1.785409 -0.248221 2.086288 -40.455187 -22.800479 35.512896 -161.162070 63.448564 160.788800 0.000000 0.000000 0.000000 
0.258691 89.543060 -0.539707 0.000000 0.000000 0.000000 -0.813095 -61.822057 2.798901 -35.445130 8.243063 25.777622 40.074356 -4.888938 -7.614330 -5.035262 -3.737824 -8.489616 -0.716465 0.829185 0.773547 0.000000 0.000000 0.000000 -1.679385 -60.672673 2.527831 -31.610051 -7.825848 -24.009935 40.078700 1.455821 -7.472768 -12.041258 3.312475 20.083560 1.732023 -0.197721 -0.330082 0.000000 0.000000 0.000000 -1.198296 -59.024972 2.400496 11.086214 1.455637 -2.030775 9.289592 0.030961 -5.366059 0.523235 -2.725317 1.184261 0.000000 0.000000 0.000000 10.155908 0.482458 -5.332560 -19.764302 23.808248 10.701277 1.631494 23.517250 -4.301823 0.000000 0.000000 0.000000 10.987216 -0.060044 -4.953532 -6.030839 -11.211475 -2.890065 -1.878711 0.939125 -3.824106 -15.661195 7.240158 -33.276125 2.734500 -40.020988 1.244389 0.000000 0.000000 0.000000 10.147166 0.017817 -5.155831 -4.387984 10.918391 3.111352 1.851030 -0.447895 2.185496 -39.897983 -23.226861 36.005906 -161.028321 63.499920 160.330413 0.000000 0.000000 0.000000 
